<svg width="500" height="500" viewBox="0 0 500 500" fill="none" xmlns="http://www.w3.org/2000/svg">
<path d="M127.65 286.707H227.314C237.359 286.707 245.504 294.844 245.504 304.879V376.227C245.504 394.991 270.512 401.446 279.61 385.024L374.332 214.037H444.462C479.086 214.037 501.009 251.161 484.264 281.442L409.198 417.171C401.19 431.642 385.947 440.63 369.395 440.63H120.357C85.8652 440.63 63.9297 403.764 80.4096 373.491L127.65 286.707Z" fill="#306ff4"/>
<path d="M371.598 212.916H271.913C261.867 212.916 253.723 204.78 253.723 194.743V123.398C253.723 104.631 228.715 98.1774 219.618 114.598L124.893 285.593H55.5384C21.0455 285.593 -0.889944 248.728 15.5899 218.455L89.4751 82.7265C97.4354 68.1031 112.763 59 129.424 59H379.641C414.268 59 436.189 96.1242 419.444 126.404L371.598 212.916Z" fill="#58CDFF"/>
</svg>
